<?xml version="1.0" ?><svg xmlns="http://www.w3.org/2000/svg" xmlns:xlink="http://www.w3.org/1999/xlink" version="1.1" width="24px" height="24px" viewBox="0 0 64 64" style="enable-background:new 0 0 64 64;" xml:space="preserve"><g id="coral_reef"/><g id="green_algae"/><g id="shark_warning"/><g id="squid"/><g id="dolpine"/><g id="fish"/><g id="turtle"/><g id="anchor"/><g id="buoy"/><g id="compass"/><g id="lifebuoy"/><g id="lifejacket"/><g id="license"/><g id="pressure"><g><path d="M53,24c0-11.6-9.4-21-21-21s-21,9.4-21,21c0,8,4.5,14.9,11,18.5V47c0,1.7,1.3,3,3,3h2v10c0,0.6,0.4,1,1,1h8    c0.6,0,1-0.4,1-1V50h2c1.7,0,3-1.3,3-3v-4.5C48.5,38.9,53,32,53,24z M35,59h-6v-9h6V59z M40,47c0,0.6-0.4,1-1,1H25    c-0.6,0-1-0.4-1-1v-3.6c2.5,1,5.2,1.6,8,1.6s5.5-0.6,8-1.6V47z M32,43c-10.5,0-19-8.5-19-19S21.5,5,32,5s19,8.5,19,19    S42.5,43,32,43z"/><path d="M32,7c-9.4,0-17,7.6-17,17s7.6,17,17,17s17-7.6,17-17S41.4,7,32,7z M32,39c-8.3,0-15-6.7-15-15S23.7,9,32,9s15,6.7,15,15    S40.3,39,32,39z"/><path d="M32,11c-7.2,0-13,5.8-13,13c0,0.6,0.4,1,1,1s1-0.4,1-1c0-6.1,4.9-11,11-11s11,4.9,11,11c0,0.6,0.4,1,1,1s1-0.4,1-1    C45,16.8,39.2,11,32,11z"/><path d="M40.2,20.3l-6.9,7.9C32.9,28.1,32.5,28,32,28c-2.2,0-4,1.8-4,4s1.8,4,4,4s4-1.8,4-4c0-1-0.4-1.9-1-2.6l6.8-7.7    c0.4-0.4,0.3-1-0.1-1.4C41.2,19.9,40.6,19.9,40.2,20.3z M32,34c-1.1,0-2-0.9-2-2s0.9-2,2-2s2,0.9,2,2S33.1,34,32,34z"/></g></g><g id="gloves"/><g id="oxygen"/><g id="neoprene_clothes"/><g id="fins"/><g id="goggles"/><g id="ocean"/></svg>
